Coordinates
version=1
nRows=11
nColumns=40
inDegrees=yes

Units are S.I. units (second, meters, Newtons, ...)
If the header above contains a line with 'inDegrees', this indicates whether rotational values are in degrees (yes) or radians (no).

endheader
time	pelvis_tilt	pelvis_list	pelvis_rotation	pelvis_tx	pelvis_ty	pelvis_tz	hip_flexion_r	hip_adduction_r	hip_rotation_r	knee_angle_r	knee_angle_r_beta	ankle_angle_r	subtalar_angle_r	mtp_angle_r	hip_flexion_l	hip_adduction_l	hip_rotation_l	knee_angle_l	knee_angle_l_beta	ankle_angle_l	subtalar_angle_l	mtp_angle_l	lumbar_extension	lumbar_bending	lumbar_rotation	arm_flex_r	arm_add_r	arm_rot_r	elbow_flex_r	pro_sup_r	wrist_flex_r	wrist_dev_r	arm_flex_l	arm_add_l	arm_rot_l	elbow_flex_l	pro_sup_l	wrist_flex_l	wrist_dev_l
      6.15000000	     41.01822966	      1.06643205	   -177.56485631	      0.42283380	      0.67273461	     -0.60198090	     96.28475690	    -13.17620439	      4.74917185	     63.23641965	      1.10368373	     13.28429518	      0.00000000	      0.00000000	     96.97364731	    -13.15432927	      1.91210606	     63.02059478	      1.09991688	     10.67867038	      0.00000000	      0.00000000	    -43.49936438	     -2.87608854	     12.23668138	     55.63650390	    -33.02006856	     19.16814795	     36.21350402	     85.72476188	      0.00000000	      0.00000000	     73.23159468	      8.65178456	     11.62104444	     12.72682425	     28.32521773	      0.00000000	      0.00000000
      6.15500000	     40.81655672	      0.96981561	   -177.58214573	      0.42300102	      0.67225448	     -0.60210256	     96.24721879	    -13.14568287	      4.87641718	     63.43296184	      1.10711404	     13.29487222	      0.00000000	      0.00000000	     96.87805431	    -13.24848086	      1.77909981	     63.20984637	      1.10321994	     10.76254232	      0.00000000	      0.00000000	    -43.57405984	     -2.96709714	     12.17242471	     55.71298629	    -33.04598362	     19.62924490	     36.09595314	     85.44436635	      0.00000000	      0.00000000	     73.13897918	      8.50642109	     12.15723013	     12.71447686	     29.93554090	      0.00000000	      0.00000000
      6.16000000	     40.67741231	      1.00690140	   -177.54997959	      0.42318046	      0.67164799	     -0.60198130	     96.23699607	    -13.18845639	      4.87483754	     63.61958769	      1.11037127	     13.28719824	      0.00000000	      0.00000000	     96.89907302	    -13.23916678	      1.84135344	     63.40816942	      1.10668133	     10.77938596	      0.00000000	      0.00000000	    -43.57486454	     -2.90770788	     12.17796157	     55.65159773	    -32.99988195	     19.57431758	     36.04078181	     85.46664410	      0.00000000	      0.00000000	     73.08157276	      8.49158706	     12.35505331	     12.65947488	     30.03435982	      0.00000000	      0.00000000
      6.16500000	     40.69078914	      0.91934167	   -177.63026653	      0.42353913	      0.67075891	     -0.60224459	     96.41121739	    -13.02590360	      5.12358807	     63.76425870	      1.11289626	     13.35385339	      0.00000000	      0.00000000	     97.03572816	    -13.35835699	      1.78956864	     63.58071118	      1.10969275	     10.79165525	      0.00000000	      0.00000000	    -43.38848192	     -3.06465013	     12.23778980	     55.41092833	    -33.24227298	     20.24538667	     36.37855289	     82.97162017	      0.00000000	      0.00000000	     73.13342470	      8.50677236	     13.24013604	     12.15456242	     32.14321577	      0.00000000	      0.00000000
      6.17000000	     40.37300642	      1.04857425	   -177.45447935	      0.42348428	      0.67049011	     -0.60179547	     96.19394593	    -13.30905181	      4.86046714	     64.01888201	      1.11734027	     13.45580888	      0.00000000	      0.00000000	     96.88556465	    -13.21371586	      1.88451636	     63.77505714	      1.11308473	     10.88454185	      0.00000000	      0.00000000	    -43.60685306	     -2.78921529	     12.14424024	     55.59128916	    -33.04118075	     19.94790029	     35.97291383	     85.46324122	      0.00000000	      0.00000000	     72.87847144	      8.36569228	     13.12401838	     12.65237001	     31.58084366	      0.00000000	      0.00000000
      6.17500000	     40.15301504	      1.00629277	   -177.44620113	      0.42352327	      0.67010314	     -0.60185624	     96.09414425	    -13.31036558	      4.92941691	     64.19062836	      1.12033781	     13.47581501	      0.00000000	      0.00000000	     96.78013076	    -13.27819466	      1.80149712	     63.96357169	      1.11637493	     10.92219048	      0.00000000	      0.00000000	    -43.72379588	     -2.83178350	     12.10955644	     55.51884392	    -32.90603085	     19.68769881	     35.90030044	     85.28424555	      0.00000000	      0.00000000	     72.89463435	      8.32140936	     13.27021460	     12.58856283	     31.45930992	      0.00000000	      0.00000000
      6.18000000	     40.16457342	      1.08889119	   -177.35454752	      0.42371926	      0.66925387	     -0.60161178	     96.23872624	    -13.43995825	      4.83891537	     64.39875733	      1.12397035	     13.63332140	      0.00000000	      0.00000000	     96.96352820	    -13.17669367	      1.94425062	     64.14648461	      1.11956736	     10.95398856	      0.00000000	      0.00000000	    -43.54477028	     -2.68593544	     12.12845525	     55.32443944	    -32.81646572	     19.30279743	     35.89991478	     85.43980344	      0.00000000	      0.00000000	     72.94762477	      8.80884896	     10.98355657	     12.95890418	     22.17369740	      0.00000000	      0.00000000
      6.18500000	     39.92930792	      1.02716396	   -177.35760302	      0.42378413	      0.66886162	     -0.60167453	     96.13155151	    -13.43030363	      4.92055748	     64.56605655	      1.12689027	     13.68373669	      0.00000000	      0.00000000	     96.82916100	    -13.24291338	      1.85579890	     64.31697831	      1.12254304	     11.05107808	      0.00000000	      0.00000000	    -43.68060011	     -2.73239358	     12.07234367	     55.38049096	    -32.88042818	     19.75375835	     35.87751480	     85.34224918	      0.00000000	      0.00000000	     72.83655161	      8.56729717	     12.13510639	     12.85699216	     25.44000685	      0.00000000	      0.00000000
      6.19000000	     39.87687753	      1.04763119	   -177.29551021	      0.42400336	      0.66808942	     -0.60154023	     96.22558516	    -13.48982445	      4.98287628	     64.75949958	      1.13026649	     13.72804920	      0.00000000	      0.00000000	     96.92532955	    -13.17715800	      1.94946347	     64.49247925	      1.12560611	     11.07064144	      0.00000000	      0.00000000	    -43.58157409	     -2.68280686	     12.06948778	     55.16905561	    -32.76530300	     19.28560608	     35.85680211	     85.48075639	      0.00000000	      0.00000000	     72.65945704	      8.48928646	     12.72931250	     12.86749199	     27.26744513	      0.00000000	      0.00000000
      6.19500000	     39.70638359	      1.00954578	   -177.24571978	      0.42399933	      0.66754655	     -0.60151156	     96.18071319	    -13.53810309	      5.05206450	     64.96345942	      1.13382626	     13.84515899	      0.00000000	      0.00000000	     96.87939914	    -13.19335688	      1.87861627	     64.70222357	      1.12926683	     11.12660635	      0.00000000	      0.00000000	    -43.63300379	     -2.67158004	     11.99299792	     55.09806489	    -32.71984545	     19.30209810	     35.88537172	     85.46414508	      0.00000000	      0.00000000	     72.54407942	      8.35257311	     13.20720209	     12.84311999	     28.29461359	      0.00000000	      0.00000000
      6.20000000	     39.61306177	      0.96172666	   -177.25114101	      0.42404958	      0.66684402	     -0.60156700	     96.22387620	    -13.51377310	      5.14082779	     65.14823433	      1.13705119	     13.90693375	      0.00000000	      0.00000000	     96.92085407	    -13.24923632	      1.82903621	     64.92188233	      1.13310060	     11.19059633	      0.00000000	      0.00000000	    -43.59128568	     -2.72599137	     11.97242349	     54.92898045	    -32.63303465	     19.01840613	     35.90455534	     85.42990092	      0.00000000	      0.00000000	     72.43310541	      8.29387616	     13.42021627	     12.80900673	     29.38946243	      0.00000000	      0.00000000
